<?xml version="1.0" standalone="no"?><!DOCTYPE svg PUBLIC "-//W3C//DTD SVG 1.1//EN" "http://www.w3.org/Graphics/SVG/1.1/DTD/svg11.dtd"><svg t="1547907061506" class="icon" style="" viewBox="0 0 1024 1024" version="1.1" xmlns="http://www.w3.org/2000/svg" p-id="2993" xmlns:xlink="http://www.w3.org/1999/xlink" width="200" height="200"><defs><style type="text/css"></style></defs><path d="M799.306 313.723v20.48h154.167v618.844h-882.098v-618.844h233.189v-20.48h-253.669v659.804h923.058v-659.804z" fill="#707070" p-id="2994"></path><path d="M339.333 880.513h45.173v45.173h-45.173v-45.173z" fill="#707070" p-id="2995"></path><path d="M640.119 880.513h45.394v45.173h-45.394v-45.173z" fill="#707070" p-id="2996"></path><path d="M489.837 880.513h45.173v45.173h-45.173v-45.173z" fill="#707070" p-id="2997"></path><path d="M293.186 582.762c-1.417 1.876-3.299 5.628-5.659 11.258-2.355 5.159-32.893 66.118-70.724 180.115-3.299 15.479-5.188 28.142-5.659 37.99 31.885-39.688 115.452-199.588 126.433-211.38 32.426-34.816 203.776-308.566 241.349-334.59-17.093 47.567-232.454 395.172-237.642 403.149 162.181 35.549 232.452-55.351 241.883-63.324l-71.436-12.667 86.995-26.030c57.315-58.356 72.847-149.86 72.847-149.86-6.603 2.343-75.911 22.749-87.702 26.032l94.775-51.36c6.599-25.799 56.584-142.582 58.704-331.383-25.463 1.878-283.72 77.869-445.583 505.162-1.411 8.446-0.94 14.074 1.417 16.888z" fill="#707070" p-id="2998"></path></svg>